inDegrees=yes
name=ik_lifting_orientations
DataType=double
version=3
OpenSimVersion=4.5-2024-01-10-34fd6af
endheader
time	pelvis_tilt	pelvis_list	pelvis_rotation	pelvis_tx	pelvis_ty	pelvis_tz	hip_flexion_r	hip_adduction_r	hip_rotation_r	knee_angle_r	knee_angle_r_beta	ankle_angle_r	subtalar_angle_r	mtp_angle_r	hip_flexion_l	hip_adduction_l	hip_rotation_l	knee_angle_l	knee_angle_l_beta	ankle_angle_l	subtalar_angle_l	mtp_angle_l	lumbar_extension	lumbar_bending	lumbar_rotation	arm_flex_r	arm_add_r	arm_rot_r	elbow_flex_r	pro_sup_r	wrist_flex_r	wrist_dev_r	arm_flex_l	arm_add_l	arm_rot_l	elbow_flex_l	pro_sup_l	wrist_flex_l	wrist_dev_l
2.12	1.4438181330868	1.506818701392283	-87.48920739353609	0	0.9399999998679526	0	44.99574669544948	-10.1285328973213	0	59.99798735410956	1.047162423899133	-5.03269340529789	0	0	44.99574669544948	-10.1285328973213	0	59.99798735410956	1.047162423899133	-5.03269340529789	0	0	2.186179292044151	-1.653084401777457	70.35941089360644	88.56995791917733	-35.45749512362522	29.82360785957338	67.01657297448907	1.423380262982443	0	0	0	-11.95407081714201	0	88.60472895821052	1.423380262982443	0	0
2.13	1.347608873130845	1.400307587989423	-87.5235170566019	0	0.9399999998679526	0	44.99575853294191	-10.12759561642501	0	59.9979931040733	1.047162524254932	-5.032400566580885	0	0	44.99575853294191	-10.12759561642501	0	59.9979931040733	1.047162524254932	-5.032400566580885	0	0	2.206528614497786	-1.568349910189955	70.58523880615009	88.80387540374846	-35.79902365221889	29.88397398690071	64.52668486169691	1.420396277862186	0	0	0	-11.95908113275112	0	88.60765363381117	1.420396277862186	0	0
2.14	1.231427446923538	1.276337720533428	-87.53217668102579	0	0.9399999998679526	0	44.99576941866582	-10.12672177590948	0	59.99799834996122	1.047162615812948	-5.03212665136264	0	0	44.99576941866582	-10.12672177590948	0	59.99799834996122	1.047162615812948	-5.03212665136264	0	0	2.237284968007128	-1.473572264489905	70.80611400115366	89.08873586955148	-36.11403883590713	29.97375922318603	61.97792719038414	1.417660846603648	0	0	0	-11.96366330119583	0	88.61033469546619	1.417660846603648	0	0
2.15	1.105637811791938	1.146272328360577	-87.60491536444862	0	0.9399999998679526	0	44.99577190004487	-10.12646220542312	0	59.99799933613298	1.047162633024893	-5.032040830015552	0	0	44.99577190004487	-10.12646220542312	0	59.99799933613298	1.047162633024893	-5.032040830015552	0	0	2.33102443777419	-1.382983311703261	71.05081320691475	89.54046385835413	-36.12392459502059	30.13129998603484	59.13124532330511	1.417082165811682	0	0	0	-11.96457577794032	0	88.61090187258746	1.417082165811682	0	0
2.16	0.9509725559204704	0.9778756564283946	-87.69355419067281	0	0.9399999998679526	0	44.99577446251175	-10.12619412146337	0	59.99800035339478	1.04716265077946	-5.031952221554476	0	0	44.99577446251175	-10.12619412146337	0	59.99800035339478	1.04716265077946	-5.031952221554476	0	0	2.32931589344888	-1.243150547071184	71.29229735395126	89.67191567009291	-36.35965108232003	30.1180778866421	57.1479151710469	1.416484755096552	0	0	0	-11.96551750673492	0	88.61148740729138	1.416484755096552	0	0
2.17	0.8457142704517718	0.8800485517299964	-87.84980699891268	0	0.9399999998679526	0	44.9957766766971	-10.12596316665896	0	59.99800123354039	1.047162666140899	-5.031875956484933	0	0	44.9957766766971	-10.12596316665896	0	59.99800123354039	1.047162666140899	-5.031875956484933	0	0	2.363630223461114	-1.150995161050933	71.72003779290073	89.93033491245791	-36.75265512152789	29.99117024717169	55.25545705283726	1.415968214968513	0	0	0	-11.96633215491675	0	88.61199367906079	1.415968214968513	0	0
2.18	0.7108363826387013	0.7369755937064776	-88.089927346091	0	0.9399999998679526	0	44.99578250507261	-10.12550026073012	0	59.99800406427671	1.047162715546568	-5.031731203065992	0	0	44.99578250507261	-10.12550026073012	0	59.99800406427671	1.047162715546568	-5.031731203065992	0	0	2.324709276777488	-1.008172594596742	71.97940478585684	89.92376667026051	-37.22533756222415	29.77198988899436	53.74958083215434	1.414499521619383	0	0	0	-11.96879779983709	0	88.61343318074699	1.414499521619383	0	0
2.19	0.6244897628841356	0.661195669243833	-88.14974492497684	0	0.9399999998679526	0	44.99578990416911	-10.12489790749042	0	59.99800759725284	1.047162777208634	-5.031541884043627	0	0	44.99578990416911	-10.12489790749042	0	59.99800759725284	1.047162777208634	-5.031541884043627	0	0	2.357286469113427	-0.9395467982868895	71.99962458294961	90.09283222153014	-37.53364649929442	29.6233669362379	51.66473516158716	1.412646861093592	0	0	0	-11.97189279461917	0	88.61524901743323	1.412646861093592	0	0
2.2	0.5135919065960786	0.5612081066039387	-88.21971988690248	0	0.9399999998679526	0	44.99579752025247	-10.12428373596643	0	59.9980112437495	1.047162840852007	-5.031349416643703	0	0	44.99579752025247	-10.12428373596643	0	59.9980112437495	1.047162840852007	-5.031349416643703	0	0	2.408461135660433	-0.8727769143340719	71.86706897486457	90.20607555509859	-37.63658249041134	29.41101067365372	49.71762213605005	1.410736472523484	0	0	0	-11.97508825489011	0	88.61712143488094	1.410736472523484	0	0
2.21	0.4485998518611167	0.4455106587293197	-88.23767963928279	0	0.9399999998679526	0	44.99580020772696	-10.12400590984759	0	59.99801231164221	1.047162859490251	-5.031258008178965	0	0	44.99580020772696	-10.12400590984759	0	59.99801231164221	1.047162859490251	-5.031258008178965	0	0	2.316664673045366	-0.7903147612861947	71.96674817149812	90.60308829331902	-37.57714706236843	29.70368929533154	47.70708363672862	1.410108810837828	0	0	0	-11.97607882008788	0	88.61773661925859	1.410108810837828	0	0
2.22	0.311771949721911	0.3077429895628732	-88.30474243260153	0	0.9399999998679526	0	44.99580284955228	-10.12373331304058	0	59.99801336177946	1.047162877818603	-5.03116838577289	0	0	44.99580284955228	-10.12373331304058	0	59.99801336177946	1.047162877818603	-5.03116838577289	0	0	2.298645920844249	-0.6612580390863457	72.14285013695118	90.96615649037034	-37.57055750279374	29.86511944840378	45.57700956325918	1.409491637444949	0	0	0	-11.9770530183585	0	88.61834152384937	1.409491637444949	0	0
2.23	0.1728204707672323	0.1761683165306562	-88.35719491768573	0	0.9399999998679526	0	44.99580528540379	-10.12348269956973	0	59.99801433130158	1.047162894739956	-5.031086065020618	0	0	44.99580528540379	-10.12348269956973	0	59.99801433130158	1.047162894739956	-5.031086065020618	0	0	2.179721809313177	-0.5205753886561751	72.19328475373902	91.49044038779759	-37.18824937082697	30.33001492723095	43.55839379262888	1.408922223142232	0	0	0	-11.97795227502255	0	88.6188996187704	1.408922223142232	0	0
2.24	0.1175164541672113	0.1317773708415201	-88.21273874364782	0	0.9399999998679526	0	44.99580752070256	-10.1232538776269	0	59.99801522367841	1.04716291031487	-5.031011000687224	0	0	44.99580752070256	-10.1232538776269	0	59.99801522367841	1.04716291031487	-5.031011000687224	0	0	2.128935432474065	-0.4852881673316785	71.91353108551938	91.93955317856749	-36.79466469870662	30.55137646875149	42.25484100463321	1.408399018545476	0	0	0	-11.97877942018425	0	88.61941242261668	1.408399018545476	0	0
2.25	0.06368953651266435	0.04927878909915391	-88.12796278513079	0	0.9399999998679526	0	44.99581048399666	-10.12295020773499	0	59.99801640448315	1.047162930923801	-5.030911395082017	0	0	44.99581048399666	-10.12295020773499	0	59.99801640448315	1.047162930923801	-5.030911395082017	0	0	2.0428421765278	-0.4107435879558494	71.90169579003285	92.39520717221019	-36.6313921811126	30.84922221644638	40.71901312382172	1.407705824042535	0	0	0	-11.97987471477689	0	88.62009183713585	1.407705824042535	0	0
2.26	0.009131076233656311	0.01992386577024104	-87.99518627306438	0	0.9399999998679526	0	44.99580632676058	-10.12312670974884	0	59.99801401308841	1.047162889186089	-5.030953448611318	0	0	44.99580632676058	-10.12312670974884	0	59.99801401308841	1.047162889186089	-5.030953448611318	0	0	2.042389363766067	-0.3672860844676896	71.78182646001748	92.6367632207414	-36.86219570136705	30.85975442524972	39.13516155737979	1.408853553185305	0	0	0	-11.97782634554517	0	88.61896691646298	1.408853553185305	0	0
2.27	-0.02891279140595734	-0.01652795677863955	-87.86141844425426	0	0.9399999998679526	0	44.99580763388885	-10.12299228025196	0	59.99801453215955	1.047162898245589	-5.030909346639419	0	0	44.99580763388885	-10.12299228025196	0	59.99801453215955	1.047162898245589	-5.030909346639419	0	0	1.917369791239414	-0.3075231378944576	71.44647133818647	92.76365788679546	-36.84033252698296	30.82962859391095	38.17560647768278	1.408548218839385	0	0	0	-11.97830818860824	0	88.61926618106074	1.408548218839385	0	0
2.28	-0.07855860425374318	-0.07343662120215641	-87.69657665579768	0	0.9399999998679526	0	44.99580960976164	-10.12278941649448	0	59.99801531730069	1.047162911948887	-5.030842830689021	0	0	44.99580960976164	-10.12278941649448	0	59.99801531730069	1.047162911948887	-5.030842830689021	0	0	1.720760543545775	-0.2468542823259527	71.35813053499137	93.13234913924029	-37.03936966818613	31.11130265588081	37.07542969845734	1.408086515324624	0	0	0	-11.97903698397197	0	88.61971870636854	1.408086515324624	0	0
2.29	-0.1265813617990961	-0.1307222727712374	-87.4954359560186	0	0.9399999998679526	0	44.99581197220093	-10.1225476015743	0	59.99801625746025	1.047162928357767	-5.030763614298779	0	0	44.99581197220093	-10.1225476015743	0	59.99801625746025	1.047162928357767	-5.030763614298779	0	0	1.541628991644533	-0.1916823101863191	71.22146809899562	93.72297252773805	-36.88137983154998	31.57539719551292	35.21512136361891	1.407534098649133	0	0	0	-11.97990945047191	0	88.62026014156667	1.407534098649133	0	0
